<?xml version="1.0" encoding="utf-8"?>
<!-- Generator: Adobe Illustrator 21.0.0, SVG Export Plug-In . SVG Version: 6.00 Build 0)  -->
<svg version="1.1" id="Layer_1" xmlns="http://www.w3.org/2000/svg" xmlns:xlink="http://www.w3.org/1999/xlink" x="0px" y="0px"
	 viewBox="0 0 16 18" style="enable-background:new 0 0 16 18;" xml:space="preserve">
<style type="text/css">
	.st0{fill:#866809;}
</style>
<g>
	<g transform="translate(0 .148)">
		<path class="st0" d="M14.5,16.2H1.3c-0.1,0-0.2-0.1-0.2-0.2V7.3h13.6V16C14.7,16.1,14.6,16.2,14.5,16.2z M1.3,3h1v0.6
			C2.3,4.3,3,5,3.8,5s1.5-0.7,1.5-1.5V3h5v0.6C10.3,4.3,11,5,11.8,5s1.5-0.7,1.5-1.5V3h1.2c0.1,0,0.2,0.1,0.2,0.2v3.1H1.1V3.2
			C1.1,3,1.2,3,1.3,3z M3.3,1.6c0-0.2,0.2-0.4,0.5-0.4c0.2,0,0.4,0.2,0.4,0.4v1.9C4.2,3.8,4,4,3.8,3.9c-0.2,0-0.4-0.2-0.4-0.4
			C3.3,3.5,3.3,1.6,3.3,1.6z M11.4,1.6c0-0.2,0.2-0.4,0.5-0.4c0.2,0,0.4,0.2,0.4,0.4v1.9c0,0.2-0.2,0.4-0.5,0.4
			c-0.2,0-0.4-0.2-0.4-0.4V1.6L11.4,1.6z M14.5,1.9h-1.2V1.6c0-0.8-0.7-1.5-1.5-1.5s-1.5,0.7-1.5,1.5v0.3h-5V1.6
			c0-0.8-0.7-1.5-1.5-1.5C3,0.1,2.3,0.8,2.3,1.6v0.3h-1C0.6,1.9,0,2.4,0,3.2V16c0,0.7,0.6,1.3,1.3,1.3h13.2c0.7,0,1.3-0.6,1.3-1.3
			l0,0V3.2C15.8,2.4,15.2,1.9,14.5,1.9L14.5,1.9z"/>
	</g>
	<path class="st0" d="M3.2,11h1.4V9.6H3.2V11z M5.9,11h1.4V9.6H5.9V11z M8.5,11h1.4V9.6H8.5V11z M11.2,11h1.4V9.6h-1.4V11z
		 M3.2,13.9h1.4v-1.4H3.2V13.9z M5.9,13.9h1.4v-1.4H5.9V13.9z M8.5,13.9h1.4v-1.4H8.5V13.9z M11.2,13.9h1.4v-1.4h-1.4V13.9z"/>
</g>
</svg>
