<svg id="Layer_1" data-name="Layer 1" xmlns="http://www.w3.org/2000/svg" viewBox="0 0 442.64 100"><title>171207-tempurong-logo</title><path d="M99.32,57.86,98,59.06l-1.29-1.19L98,56.67h0ZM100,0A100,100,0,0,0,0,100H48.73c.06-.4.12-.78.18-1.16,0-.14,0-.27.07-.4s.08-.48.11-.71.06-.29.08-.44.07-.41.11-.6,0-.31.08-.46.07-.36.1-.53l.09-.47.09-.47c0-.16.06-.31.1-.46s0-.28.08-.42c.4-1.89.81-3.51,1.24-5a2.17,2.17,0,0,1,.07-.24l.12-.43.09-.28.12-.41.09-.29.12-.4c0-.1.06-.21.1-.31l.12-.38c0-.11.07-.22.1-.33l.12-.36c0-.13.09-.26.13-.39s.06-.2.1-.3c.44-1.33.91-2.72,1.43-4.3l0-.06c.07-.24.15-.48.24-.73l0-.12c.08-.24.16-.49.25-.74.35-1.1.72-2.3,1.12-3.62.12-.38.23-.77.35-1.17l.06-.2.18-.61.24-.85.12-.41.3-1.08a1.55,1.55,0,0,0,.07-.23c.12-.43.24-.86.36-1.31.16-.6.31-1.19.46-1.77,0-.14.07-.28.11-.43.14-.57.27-1.14.4-1.69.28-1.28.53-2.5.73-3.67.09-.51.18-1,.25-1.5a2.34,2.34,0,0,0,0-.26c.15-1,.28-1.89.38-2.76l0-.31c.05-.42.09-.83.13-1.23.1-1.12.16-2.14.2-3.07h0c.08-1.75.06-3.17,0-4.22L44.29,61.65s-3.38-6.38,3.77-11.87L39,52.44S40.26,42.35,52.24,42L37.71,35.76s9.06-6.38,17.66.56L46.45,23.55s12.9.18,14.85,11.84c2-11.74,14.53-13.73,14.53-13.73S71.88,28,68.15,34c6.17-4.82,14.54-2.76,14.54-2.76L72.31,38.17c8.59-3.07,13.83,2.42,13.83,2.42L71.82,43.72c9,1.69,10.87,8.54,10.87,8.54l-13-4.58c10.21,6.65,6.75,15.81,6.8,16S68,53.82,63,47.82c.09,1,.17,2.45.2,4.16h0c0,1.57,0,3.4-.11,5.45h0v.06a82.8,82.8,0,0,1-1.46,11.57h0c-.11.53-.22,1.07-.34,1.62a1.16,1.16,0,0,0,0,.18c-.13.57-.26,1.14-.4,1.72-.24,1-.48,2-.71,3-.74,3.12-1.41,6.09-2,8.81,0,.17-.08.35-.11.52l-.12.52-.12.59-.09.4c0,.21-.09.42-.13.63l0,.24c-.17.78-.33,1.54-.48,2.27l0,.13-.15.74c-.43,2.12-.8,4-1.08,5.43l-.09.47v0c-.29,1.53-.49,2.63-.6,3.2v.07c0,.12,0,.21,0,.28l0,.11H82.55V76.58l-6.11,5.69-1.67-1.54,21.6-20.12-1.28-1.19L73.48,79.54l-2.62-2.42L92.46,57l-8.7-8,1.67-1.55,8.7,8,1.28-1.19-8.69-8,2.62-2.44,8.69,8,8.64-8.05,2.63,2.43-8.64,8,1.28,1.19,8.65-8.05,1.67,1.55-8.64,8L125.36,77l-2.63,2.43L101,59.41,99.71,60.6l21.73,20.06-1.68,1.55-6.1-5.63V100h27.58l0-.11c0-.07,0-.16-.05-.28l0-.07c-.1-.57-.3-1.67-.6-3.2v0l-.09-.47c-.29-1.48-.65-3.31-1.08-5.43,0-.24-.1-.49-.16-.74l0-.13c-.15-.73-.31-1.49-.48-2.27l-.05-.24c0-.21-.09-.42-.13-.63l-.09-.4c0-.19-.08-.39-.13-.59s-.07-.35-.11-.52-.07-.35-.11-.52c-.59-2.72-1.26-5.69-2-8.81-.23-1-.47-2-.71-3-.14-.58-.28-1.15-.4-1.72,0-.06,0-.12,0-.18-.12-.55-.23-1.09-.34-1.62h0a84.48,84.48,0,0,1-1.47-11.57v-.06h0c-.11-2-.14-3.88-.11-5.45h0c0-1.71.11-3.11.2-4.16-5,6-13.52,16-13.47,15.85s-3.41-9.34,6.8-16l-13,4.58s1.84-6.85,10.87-8.54l-14.33-3.13s5.25-5.49,13.84-2.42l-10.38-6.93s8.37-2.06,14.54,2.76c-3.73-6-7.68-12.34-7.68-12.34s12.52,2,14.52,13.73c2-11.66,14.86-11.84,14.86-11.84l-8.92,12.77c8.6-6.94,17.65-.56,17.65-.56L144,42c12,.31,13.28,10.4,13.28,10.4l-9.1-2.66c7.14,5.49,3.76,11.87,3.76,11.87L136.37,48.38c-.05,1-.07,2.47,0,4.22h0c0,.93.11,1.95.21,3.07,0,.4.08.81.13,1.23l0,.31c.1.87.22,1.79.37,2.76a2.34,2.34,0,0,1,0,.26c.08.49.16,1,.25,1.5.21,1.17.45,2.39.74,3.67.13.55.26,1.12.4,1.69,0,.15.07.29.11.43.14.58.3,1.17.46,1.77.12.45.24.88.36,1.31l.06.23c.11.37.21.73.31,1.08,0,.13.08.27.11.41.09.29.17.57.25.85l.18.61.06.2c.12.4.23.79.35,1.17.39,1.32.77,2.52,1.12,3.62l.24.74,0,.12.24.73,0,.06c.52,1.58,1,3,1.43,4.3l.1.3c0,.13.08.26.13.39s.08.24.11.36.07.22.11.33l.12.38c0,.1.06.21.1.31l.12.4.09.29.12.41c0,.09.06.19.08.28s.09.28.13.43,0,.16.07.24c.43,1.53.84,3.15,1.24,5,0,.14,0,.27.08.42s.06.3.1.46l.09.47.09.47c0,.17.06.35.1.53s0,.3.08.46.07.4.11.6,0,.29.07.44l.12.71c0,.13,0,.26.07.4.06.38.12.76.18,1.16H200A100,100,0,0,0,100,0ZM232.11,25.19V21H215.77v4.18h5.73V41.26h4.89V25.19Zm16.36,16.07V37.09h-9.41V32.88h8.41V29h-8.41V25.13H248V21H234.34V41.26Zm26.4,0V21h-7.08l-4.41,13h-.11l-4.61-13h-7V41.26h4.6l-.11-14.33h.08l5.12,14.33h3.44l5.26-14.33h.09l-.12,14.33Zm18.89-16.94a5.23,5.23,0,0,0-1.69-1.92,7.46,7.46,0,0,0-2.52-1.06,13.84,13.84,0,0,0-3.1-.33H279V41.26h4.89V33.63h2.44a13.22,13.22,0,0,0,3-.35,7.72,7.72,0,0,0,2.57-1.08,5.39,5.39,0,0,0,1.77-2,6.21,6.21,0,0,0,.66-3A6.32,6.32,0,0,0,293.76,24.32Zm-4.56,4.15a2.27,2.27,0,0,1-.79.75,3.45,3.45,0,0,1-1.13.4,7,7,0,0,1-1.32.12H283.9V25h2.15a8.73,8.73,0,0,1,1.27.09,3.15,3.15,0,0,1,1.1.34,2,2,0,0,1,.78.72,2.16,2.16,0,0,1,.28,1.17A2.3,2.3,0,0,1,289.2,28.47Zm25.28,5.16V21h-4.89V33.23a6.2,6.2,0,0,1-.2,1.57,3.69,3.69,0,0,1-.66,1.33,3.17,3.17,0,0,1-1.19.93,4.7,4.7,0,0,1-3.51,0,3.14,3.14,0,0,1-1.18-.93,4.25,4.25,0,0,1-.66-1.33,5.78,5.78,0,0,1-.21-1.57V21h-4.86V33.63a8.89,8.89,0,0,0,.6,3.33,7.24,7.24,0,0,0,1.71,2.57,7.81,7.81,0,0,0,2.72,1.68,11.1,11.1,0,0,0,7.2,0,8.18,8.18,0,0,0,2.76-1.68A7.21,7.21,0,0,0,313.86,37,8.7,8.7,0,0,0,314.48,33.63ZM335,41.26,329.7,32.6a6.09,6.09,0,0,0,3.08-2,5.36,5.36,0,0,0,1.12-3.46,5.87,5.87,0,0,0-.66-2.92,5.32,5.32,0,0,0-1.76-1.89,7.27,7.27,0,0,0-2.49-1,13.35,13.35,0,0,0-2.84-.3h-7.72V41.26h4.77v-8h1.67l4.4,8Zm-6.25-12.78a2.24,2.24,0,0,1-.85.74,4.18,4.18,0,0,1-1.15.36,7.58,7.58,0,0,1-1.24.1h-2.33V25h2.62a7.47,7.47,0,0,1,1.13.09,3,3,0,0,1,1.07.33,2.1,2.1,0,0,1,.77.68,2,2,0,0,1,.31,1.16A2.18,2.18,0,0,1,328.74,28.48Zm28.93-1.82a9.83,9.83,0,0,0-2.3-3.33,10.43,10.43,0,0,0-3.51-2.12,12.82,12.82,0,0,0-4.4-.74,12.68,12.68,0,0,0-4.39.74,10.34,10.34,0,0,0-3.49,2.12,9.71,9.71,0,0,0-2.31,3.33,11.22,11.22,0,0,0-.82,4.39,11.3,11.3,0,0,0,.82,4.39,10,10,0,0,0,2.31,3.41A10.34,10.34,0,0,0,343.07,41a12.23,12.23,0,0,0,4.39.77,12.37,12.37,0,0,0,4.4-.77,10.43,10.43,0,0,0,3.51-2.19,10.16,10.16,0,0,0,2.3-3.41,12,12,0,0,0,0-8.78Zm-4.84,6.92a5.61,5.61,0,0,1-1.2,2,5.31,5.31,0,0,1-1.83,1.3,5.56,5.56,0,0,1-2.34.48,5.64,5.64,0,0,1-2.35-.48,5.24,5.24,0,0,1-1.81-1.3,5.74,5.74,0,0,1-1.19-2,7.11,7.11,0,0,1-.43-2.53,7.38,7.38,0,0,1,.41-2.46,5.5,5.5,0,0,1,3-3.24,5.64,5.64,0,0,1,2.35-.47,5.72,5.72,0,0,1,2.36.47,5.54,5.54,0,0,1,1.83,1.28,5.93,5.93,0,0,1,1.18,2,6.92,6.92,0,0,1,.43,2.46A7.11,7.11,0,0,1,352.83,33.58Zm27.32,7.68V21H375.4l.12,13.22h-.09L367.31,21h-5.58V41.26h4.75L366.36,28h.09l8.15,13.24ZM402.32,40V29.31H394v3.95h3.86V37a6.12,6.12,0,0,1-1.43.41,9.36,9.36,0,0,1-1.63.13,7,7,0,0,1-2.64-.47,5.61,5.61,0,0,1-1.95-1.32,5.42,5.42,0,0,1-1.18-2,7.78,7.78,0,0,1-.4-2.57,6.93,6.93,0,0,1,.44-2.53,6.09,6.09,0,0,1,1.24-2,5.75,5.75,0,0,1,4.27-1.79,6.48,6.48,0,0,1,2.66.53,5.16,5.16,0,0,1,1.88,1.36l3.09-3.52a9.29,9.29,0,0,0-3.34-2,13.22,13.22,0,0,0-4.47-.73,12.39,12.39,0,0,0-4.31.74,10.27,10.27,0,0,0-3.49,2.14,9.72,9.72,0,0,0-2.34,3.36,11.91,11.91,0,0,0,0,8.76,9.81,9.81,0,0,0,2.3,3.36A10.36,10.36,0,0,0,390,41a12.69,12.69,0,0,0,4.48.77,17.94,17.94,0,0,0,4.33-.49A15.22,15.22,0,0,0,402.32,40ZM235.71,69.13V58.4h-8.35v4h3.86V66a6.42,6.42,0,0,1-1.43.42,10.66,10.66,0,0,1-1.63.13,6.92,6.92,0,0,1-2.65-.48,5.33,5.33,0,0,1-1.94-1.31,5.52,5.52,0,0,1-1.19-2,7.83,7.83,0,0,1-.4-2.57,7.11,7.11,0,0,1,.44-2.53,6,6,0,0,1,1.25-2,5.58,5.58,0,0,1,1.89-1.31,5.77,5.77,0,0,1,2.37-.47,6.44,6.44,0,0,1,2.66.52,5.54,5.54,0,0,1,1.89,1.36l3.09-3.51a9.19,9.19,0,0,0-3.35-2,13.16,13.16,0,0,0-4.46-.73,12.18,12.18,0,0,0-4.32.74A10.5,10.5,0,0,0,220,52.44a9.88,9.88,0,0,0-2.33,3.36,11.18,11.18,0,0,0-.84,4.41,11,11,0,0,0,.83,4.36,9.91,9.91,0,0,0,2.3,3.36,10.24,10.24,0,0,0,3.52,2.17,12.42,12.42,0,0,0,4.47.78,18.48,18.48,0,0,0,4.34-.49A15.13,15.13,0,0,0,235.71,69.13ZM260,55.76a9.5,9.5,0,0,0-2.3-3.33,10.23,10.23,0,0,0-3.5-2.12,12.68,12.68,0,0,0-4.41-.74,12.53,12.53,0,0,0-4.39.74,10.28,10.28,0,0,0-3.49,2.12,9.5,9.5,0,0,0-2.3,3.33,11.23,11.23,0,0,0-.83,4.39,11.37,11.37,0,0,0,.83,4.39,9.88,9.88,0,0,0,2.3,3.4,10.14,10.14,0,0,0,3.49,2.19,12.09,12.09,0,0,0,4.39.77,12.24,12.24,0,0,0,4.41-.77,10.09,10.09,0,0,0,3.5-2.19,9.88,9.88,0,0,0,2.3-3.4,11.19,11.19,0,0,0,.83-4.39A11,11,0,0,0,260,55.76Zm-4.83,6.92a6,6,0,0,1-1.2,2,5.66,5.66,0,0,1-1.83,1.3,5.8,5.8,0,0,1-2.35.47,5.72,5.72,0,0,1-2.34-.47,5.41,5.41,0,0,1-1.82-1.3,6.16,6.16,0,0,1-1.19-2,7.38,7.38,0,0,1-.43-2.53,7.06,7.06,0,0,1,.42-2.46,5.55,5.55,0,0,1,1.19-2A5.6,5.6,0,0,1,249.78,54a5.85,5.85,0,0,1,2.36.47A5.51,5.51,0,0,1,254,55.73a5.85,5.85,0,0,1,1.19,2,6.84,6.84,0,0,1,.43,2.46A7.15,7.15,0,0,1,255.16,62.68Zm21.65,7.68V66.1H269v-16h-4.92V70.36Zm20.19-15a8.41,8.41,0,0,0-2.63-3.1,10.49,10.49,0,0,0-3.72-1.66,18.26,18.26,0,0,0-4.23-.5H279.1V70.36h7.55a14.5,14.5,0,0,0,4.12-.59,10.9,10.9,0,0,0,3.65-1.83,9.32,9.32,0,0,0,2.6-3.17,10,10,0,0,0,1-4.59A10.41,10.41,0,0,0,297,55.37ZM292.36,63a5,5,0,0,1-1.49,1.83,6,6,0,0,1-2.15,1,10.5,10.5,0,0,1-2.53.3h-2.31V54.29h2.43a10.38,10.38,0,0,1,2.44.28,5.94,5.94,0,0,1,2.12,1,4.91,4.91,0,0,1,1.49,1.8,7.61,7.61,0,0,1,0,5.68Zm23,7.35V66.18H306V62h8.4V58.06H306V54.23h8.89V50.11H301.24V70.36Zm21.65,0V50.11h-4.75l.11,13.21h-.08l-8.12-13.21H318.6V70.36h4.75l-.12-13.24h.09l8.15,13.24Zm26.78-7.69a4.56,4.56,0,0,0-.88-1.4,4.62,4.62,0,0,0-1.32-1,5.23,5.23,0,0,0-1.62-.53v-.06a5,5,0,0,0,2.41-1.59,4.19,4.19,0,0,0,.91-2.78A4.47,4.47,0,0,0,361,51.18a7.25,7.25,0,0,0-2.23-.83,12.52,12.52,0,0,0-2.4-.24h-8.07V70.36h8.07a13.52,13.52,0,0,0,2.85-.3,7.62,7.62,0,0,0,2.47-1,5.12,5.12,0,0,0,1.74-1.81,5.49,5.49,0,0,0,.66-2.79A4.66,4.66,0,0,0,363.8,62.67Zm-6-5.05a3.58,3.58,0,0,1-2.14.56h-2.63V54h2.41a4.67,4.67,0,0,1,2.33.47,1.63,1.63,0,0,1,.78,1.5A1.92,1.92,0,0,1,357.83,57.62Zm1.1,7.61a2.3,2.3,0,0,1-.82.73,3.52,3.52,0,0,1-1.11.35,7.08,7.08,0,0,1-1.19.1h-2.75V61.78h2.72a5.46,5.46,0,0,1,2.52.49,1.77,1.77,0,0,1,.94,1.74A2.17,2.17,0,0,1,358.93,65.23Zm22.56,5.13V66.18h-9.41V62h8.41V58.06h-8.41V54.23H381V50.11H367.36V70.36Zm22.4,0-8.41-20.25h-4.75l-8.49,20.25h5.32l1.48-4h7.84l1.57,4Zm-8.35-7.89h-5.09L393,55.52Zm27.34,5.09-3.4-3.21a4.91,4.91,0,0,1-1.75,1.49,5.38,5.38,0,0,1-2.54.57,5.85,5.85,0,0,1-2.32-.45,5.36,5.36,0,0,1-1.82-1.28,5.73,5.73,0,0,1-1.18-2,7,7,0,0,1-.43-2.51,6.87,6.87,0,0,1,.43-2.48,5.85,5.85,0,0,1,1.2-2,5.64,5.64,0,0,1,1.84-1.3,6,6,0,0,1,4.65,0,4.09,4.09,0,0,1,1.8,1.4l3.32-3.32a8.18,8.18,0,0,0-3.36-2.22,12.61,12.61,0,0,0-8.54,0,10.5,10.5,0,0,0-3.49,2.13A9.88,9.88,0,0,0,405,55.8a11.18,11.18,0,0,0-.84,4.41,10.94,10.94,0,0,0,.83,4.34,10,10,0,0,0,2.28,3.39,10.16,10.16,0,0,0,3.45,2.19,11.77,11.77,0,0,0,4.33.77,10.84,10.84,0,0,0,4.55-.9A9.62,9.62,0,0,0,422.88,67.56Zm19.76,2.8V50.11h-4.89v7.67h-7.89V50.11H425V70.36h4.89V61.89h7.89v8.47ZM234.28,99.46,229,90.79a6.16,6.16,0,0,0,3.09-2,5.41,5.41,0,0,0,1.11-3.46,6,6,0,0,0-.65-2.92,5.41,5.41,0,0,0-1.76-1.89,7.63,7.63,0,0,0-2.49-1,13.52,13.52,0,0,0-2.85-.3h-7.72V99.46h4.78v-8h1.66l4.4,8ZM228,86.67a2.2,2.2,0,0,1-.85.75,3.77,3.77,0,0,1-1.15.35,7.46,7.46,0,0,1-1.23.1h-2.33V83.15h2.61a7.49,7.49,0,0,1,1.14.09,3.46,3.46,0,0,1,1.06.33,1.89,1.89,0,0,1,1.08,1.84A2.18,2.18,0,0,1,228,86.67Zm22.78,12.79V95.28H241.4v-4.2h8.41V87.16H241.4V83.33h8.9V79.21H236.68V99.46Zm17.05-18.28a9.07,9.07,0,0,0-3.13-1.86,10.55,10.55,0,0,0-3.51-.63,11.38,11.38,0,0,0-2.83.36,7.78,7.78,0,0,0-2.52,1.13,6,6,0,0,0-1.8,2,5.72,5.72,0,0,0-.68,2.89,5.44,5.44,0,0,0,.44,2.33A5.11,5.11,0,0,0,255,89a6.23,6.23,0,0,0,1.66,1.1,16.3,16.3,0,0,0,1.9.75c.67.21,1.27.4,1.79.58a8.28,8.28,0,0,1,1.32.6,2.91,2.91,0,0,1,.81.73,1.65,1.65,0,0,1,.29,1,2.21,2.21,0,0,1-.23,1,1.85,1.85,0,0,1-.62.68,2.44,2.44,0,0,1-.9.37,4.59,4.59,0,0,1-1.06.12,5.3,5.3,0,0,1-2.41-.62,5.87,5.87,0,0,1-2-1.53l-3.21,3.26a8.86,8.86,0,0,0,3.38,2.16,11.82,11.82,0,0,0,4.2.76,10.29,10.29,0,0,0,2.89-.4,7.44,7.44,0,0,0,2.49-1.23,5.92,5.92,0,0,0,1.73-2.1,6.62,6.62,0,0,0,.65-3,4.81,4.81,0,0,0-.61-2.53A5.74,5.74,0,0,0,265.6,89a7.8,7.8,0,0,0-2-1.1c-.75-.28-1.46-.53-2.15-.76-.47-.15-.9-.3-1.28-.44a5.38,5.38,0,0,1-1-.48,1.82,1.82,0,0,1-.63-.6,1.6,1.6,0,0,1-.21-.85,1.68,1.68,0,0,1,.27-1,2.12,2.12,0,0,1,.67-.63,2.69,2.69,0,0,1,.9-.33,5.52,5.52,0,0,1,1-.09,4.59,4.59,0,0,1,2,.48,4.44,4.44,0,0,1,1.64,1.27Zm23.37,3.68a9.66,9.66,0,0,0-2.31-3.34,10.21,10.21,0,0,0-3.5-2.11,13.28,13.28,0,0,0-8.8,0,10.21,10.21,0,0,0-3.48,2.11,9.66,9.66,0,0,0-2.31,3.34,11.19,11.19,0,0,0-.83,4.39,11.37,11.37,0,0,0,.83,4.39,10,10,0,0,0,2.31,3.4,10.4,10.4,0,0,0,3.48,2.19,13,13,0,0,0,8.8,0,10.39,10.39,0,0,0,3.5-2.19,10,10,0,0,0,2.31-3.4,11.37,11.37,0,0,0,.83-4.39A11.19,11.19,0,0,0,291.23,84.86Zm-4.84,6.92a5.65,5.65,0,0,1-1.2,2,5.48,5.48,0,0,1-1.83,1.31,6.09,6.09,0,0,1-4.69,0,5.44,5.44,0,0,1-1.82-1.31,5.92,5.92,0,0,1-1.18-2,7.19,7.19,0,0,1-.43-2.53,7.3,7.3,0,0,1,.41-2.46,5.55,5.55,0,0,1,3-3.25,5.61,5.61,0,0,1,2.35-.47,5.67,5.67,0,0,1,2.35.47,5.37,5.37,0,0,1,1.84,1.29,5.73,5.73,0,0,1,1.18,2,6.84,6.84,0,0,1,.43,2.46A7.19,7.19,0,0,1,286.39,91.78Zm25.46,7.68-5.29-8.67a6.16,6.16,0,0,0,3.09-2,5.41,5.41,0,0,0,1.11-3.46,5.87,5.87,0,0,0-.66-2.92,5.32,5.32,0,0,0-1.76-1.89,7.49,7.49,0,0,0-2.48-1,13.52,13.52,0,0,0-2.85-.3h-7.72V99.46h4.77v-8h1.67l4.4,8ZM305.6,86.67a2.27,2.27,0,0,1-.85.75,3.86,3.86,0,0,1-1.15.35,7.49,7.49,0,0,1-1.24.1H300V83.15h2.61a7.7,7.7,0,0,1,1.14.09,3.55,3.55,0,0,1,1.06.33,2.13,2.13,0,0,1,.78.68,2.06,2.06,0,0,1,.3,1.16A2.18,2.18,0,0,1,305.6,86.67Zm22.69-3.29V79.21H312v4.17h5.72V99.46h4.89V83.38Z" style="fill:#f3bb1a"/></svg>