<?xml version="1.0" standalone="no"?>
<!DOCTYPE svg PUBLIC "-//W3C//DTD SVG 20010904//EN"
 "http://www.w3.org/TR/2001/REC-SVG-20010904/DTD/svg10.dtd">
<svg version="1.0" xmlns="http://www.w3.org/2000/svg"
 width="512.000000pt" height="512.000000pt" viewBox="0 0 512.000000 512.000000"
 preserveAspectRatio="xMidYMid meet">
<metadata>
Created by potrace 1.11, written by Peter Selinger 2001-2013
</metadata>
<g transform="translate(0.000000,512.000000) scale(0.100000,-0.100000)"
fill="#000000" stroke="none">
<path d="M2369 3876 c-2 -2 -36 -7 -75 -10 -39 -4 -80 -8 -90 -10 -11 -2 -39
-7 -64 -11 -47 -7 -58 -10 -199 -46 -285 -72 -574 -214 -839 -410 -122 -91
-355 -324 -449 -449 -230 -306 -399 -688 -457 -1035 -20 -117 -26 -170 -32
-302 l-6 -123 586 0 c322 0 586 3 587 8 0 4 2 14 4 22 1 8 7 40 14 70 6 30 12
66 15 80 2 14 25 90 50 170 88 276 137 456 157 570 20 124 31 310 18 310 -7 0
-204 -163 -229 -190 -40 -41 -133 -111 -140 -104 -15 16 -18 87 -5 132 8 24
30 63 50 87 20 25 34 45 30 45 -3 0 -46 -12 -95 -27 -50 -14 -93 -24 -96 -20
-10 10 42 110 76 145 32 33 95 70 134 78 11 3 38 8 59 12 37 7 34 9 -125 76
-90 38 -167 73 -171 76 -19 16 134 64 203 64 47 0 112 -19 160 -46 l54 -31
-25 34 c-14 19 -52 72 -84 119 -32 47 -69 100 -83 118 l-24 32 24 0 c13 0 49
-7 79 -16 110 -32 177 -89 225 -189 22 -45 33 -62 34 -47 1 62 86 178 169 231
57 37 165 77 158 58 -3 -6 -41 -70 -85 -142 -45 -71 -80 -131 -78 -133 2 -1
20 7 41 19 66 39 185 58 263 43 31 -6 28 -9 -88 -85 -66 -43 -120 -80 -120
-82 0 -2 24 2 52 9 41 11 66 12 113 3 63 -11 161 -57 148 -70 -6 -6 -96 -27
-224 -54 -9 -2 -33 -8 -52 -13 -20 -6 -39 -7 -43 -4 -4 4 -4 1 0 -5 4 -7 13
-13 21 -13 28 0 105 -40 144 -75 39 -36 87 -102 79 -110 -2 -2 -66 18 -142 46
-77 27 -144 49 -150 49 -6 0 5 -11 24 -24 42 -29 60 -49 93 -107 22 -39 29
-59 44 -129 2 -8 0 -37 -3 -64 l-6 -49 -37 39 c-20 21 -86 98 -145 169 -60 72
-117 138 -126 148 -15 17 -16 11 -16 -90 0 -189 -19 -338 -70 -552 -14 -58
-27 -113 -29 -121 -43 -211 -85 -421 -89 -442 l-5 -28 330 0 329 0 1 28 c4
130 3 532 -1 532 -3 0 -36 -30 -74 -65 -67 -63 -70 -65 -88 -48 -19 17 -19 19
29 62 41 37 110 101 328 306 18 17 56 52 84 78 46 43 50 50 38 67 -12 17 -17
15 -73 -38 -34 -32 -112 -104 -174 -162 -62 -58 -130 -121 -150 -140 -21 -19
-60 -56 -87 -82 l-50 -47 -29 30 -29 30 65 61 c142 131 188 174 256 237 39 36
99 92 133 125 l63 58 -58 55 c-33 29 -80 73 -106 96 -35 31 -44 45 -36 54 23
28 33 22 192 -129 44 -42 49 -44 65 -24 12 15 14 12 -129 145 l-65 60 24 25
c30 32 36 32 65 4 48 -49 174 -158 181 -158 4 0 35 27 69 59 80 78 129 121
138 121 4 0 19 -11 33 -24 l25 -24 -102 -95 c-89 -82 -100 -97 -89 -111 17
-20 23 -15 137 93 83 80 86 82 105 65 20 -18 19 -19 -29 -64 -164 -150 -165
-152 -138 -167 8 -4 47 -39 89 -78 41 -38 125 -117 188 -175 63 -58 139 -128
169 -157 l55 -52 -27 -26 c-23 -21 -32 -24 -48 -15 -10 6 -23 16 -27 23 -4 6
-31 32 -58 57 -68 61 -275 251 -349 322 -64 61 -77 66 -95 45 -8 -11 5 -28 61
-78 39 -35 88 -80 109 -99 44 -42 213 -198 287 -267 52 -47 53 -49 35 -66 -18
-16 -22 -14 -91 49 l-72 66 0 -39 c-1 -21 -1 -146 -1 -278 l0 -240 330 -3
c204 -1 331 1 331 7 0 5 -7 43 -15 83 -9 40 -18 89 -21 108 -5 29 -28 135
-110 495 -31 138 -48 300 -46 454 0 57 -3 100 -7 95 -5 -5 -75 -88 -156 -184
-81 -96 -152 -176 -157 -178 -4 -2 -8 9 -9 25 0 15 -2 39 -3 53 -10 88 60 213
159 284 23 17 19 16 -174 -53 -63 -23 -116 -41 -118 -41 -9 0 33 67 62 99 38
40 130 91 165 91 64 0 -43 32 -219 66 -13 3 -40 8 -60 13 l-36 7 42 28 c69 46
146 59 241 41 17 -3 32 -4 32 -2 0 2 -50 37 -110 77 -61 40 -106 76 -100 80
18 11 112 11 168 0 30 -5 76 -21 103 -34 27 -14 49 -23 49 -21 0 2 -38 65 -85
140 -47 75 -85 138 -85 140 0 6 55 -12 105 -34 47 -21 132 -83 148 -108 4 -6
13 -18 20 -25 17 -17 57 -104 57 -123 0 -28 17 -15 28 23 16 51 66 117 116
152 50 34 158 72 192 68 23 -3 18 -12 -76 -145 -98 -138 -118 -172 -82 -140
29 27 110 56 164 60 56 4 142 -14 197 -43 l35 -17 -45 -20 c-24 -10 -102 -44
-172 -74 l-128 -54 60 -12 c113 -23 187 -78 231 -170 21 -45 25 -63 13 -63 -5
0 -52 13 -106 29 -102 30 -104 30 -49 -26 33 -33 53 -88 54 -147 1 -50 -6 -76
-20 -76 -4 0 -20 12 -37 28 -16 15 -57 50 -90 77 -33 28 -62 52 -65 55 -5 5
-133 114 -164 139 -18 16 -19 13 -12 -104 4 -66 9 -135 11 -153 7 -70 52 -249
107 -427 23 -71 52 -166 66 -210 13 -44 35 -124 47 -178 12 -54 23 -100 24
-102 0 -3 1 -16 1 -30 l0 -25 636 0 637 0 -7 128 c-3 70 -8 138 -10 152 -3 14
-7 45 -10 70 -3 25 -13 79 -21 120 -9 41 -18 89 -21 105 -14 76 -111 343 -168
460 -249 518 -674 932 -1196 1162 -110 49 -340 127 -404 139 -17 3 -49 9 -71
14 -45 10 -78 16 -150 26 -27 3 -59 9 -70 11 -24 6 -460 14 -466 9z"/>
<path d="M2491 2502 c-13 -25 21 -48 39 -27 10 12 10 18 0 30 -16 20 -27 19
-39 -3z"/>
</g>
</svg>
