<svg id="Layer_1" data-name="Layer 1" xmlns="http://www.w3.org/2000/svg" viewBox="0 0 60 60"><title>icon</title><path d="M32.68,45.65a5.47,5.47,0,0,1-.9-.08L4,40.11a.52.52,0,0,1-.07-1L41,26.41a.47.47,0,0,1,.17,0L55.39,28a.52.52,0,0,1,.26.93L35.54,44.67A4.71,4.71,0,0,1,32.68,45.65Z" style="fill:#816809"/><path d="M41.14,26.25l0,.26,14.19,1.64a.38.38,0,0,1,.34.29.37.37,0,0,1-.14.42L35.46,44.57a4.53,4.53,0,0,1-2.78,1,4.38,4.38,0,0,1-.88-.09L4.06,40a.4.4,0,0,1-.32-.37.38.38,0,0,1,.27-.4L41,26.53a.28.28,0,0,1,.13,0v-.25m0,0a.65.65,0,0,0-.21,0L3.93,39A.65.65,0,0,0,4,40.23l27.75,5.46a4.7,4.7,0,0,0,.92.09,4.75,4.75,0,0,0,2.93-1L55.73,29.06a.65.65,0,0,0-.33-1.16L41.21,26.26Z" style="fill:#816809"/><polygon points="3.62 39.39 3.63 35.23 55.87 24.23 55.82 28.29 32.98 45.09 3.62 39.39" style="fill:#816809"/><path d="M55.75,24.38l0,3.84L33,45,3.75,39.29v-4l52-10.95m.25-.31L3.51,35.13v4.36L33,45.22,56,28.35l0-4.28Z" style="fill:#816809"/><path d="M32.71,39.46a5.38,5.38,0,0,1-.9-.08L4.05,35.69a.52.52,0,0,1-.41-.48A.49.49,0,0,1,4,34.68L35,22.47a7.32,7.32,0,0,1,2.32-.38,7.56,7.56,0,0,1,.83,0l17.31,1.48a.49.49,0,0,1,.44.37.5.5,0,0,1-.18.56L35.57,38.47A4.66,4.66,0,0,1,32.71,39.46Z" style="fill:#816809"/><path d="M37.28,22.21h0a7.34,7.34,0,0,1,.81.05L55.4,23.73a.38.38,0,0,1,.33.29.37.37,0,0,1-.12.41l-20.12,14a4.53,4.53,0,0,1-2.78,1,4.48,4.48,0,0,1-.89-.09L4.08,35.56a.38.38,0,0,1-.32-.36A.4.4,0,0,1,4,34.79l31-12.2a7.14,7.14,0,0,1,2.29-.38m0-.25a7.07,7.07,0,0,0-2.37.4L4,34.56A.65.65,0,0,0,4,35.81L31.79,39.5a4.7,4.7,0,0,0,.92.09,4.75,4.75,0,0,0,2.93-1L55.75,24.64a.65.65,0,0,0-.33-1.16L38.12,22a7.89,7.89,0,0,0-.84-.05Z" style="fill:#fff"/><path d="M38.55,23.16a8.36,8.36,0,0,0-4.9,2.37.17.17,0,0,0,.09.28l11,1.49a.91.91,0,0,0,.54-.07c.83-.33,3.39-1.46,4.22-2.62a.17.17,0,0,0-.13-.25l-10.76-1.2Z" style="fill:#816809;stroke:#fff;stroke-miterlimit:10;stroke-width:0.25px"/></svg>