<svg id="Layer_1" data-name="Layer 1" xmlns="http://www.w3.org/2000/svg" viewBox="0 0 60 60"><title>icon</title><path d="M53.41,39.34V37.87a1.22,1.22,0,0,0-.17-.61h0a1,1,0,0,0-.12-.17L48.53,30.3V17.86a1,1,0,1,0-2,0v2.88c-4.13-.17-5.67-1.42-7.19-2.68-1.92-1.58-3.84-3.15-9.39-3.15s-7.47,1.57-9.39,3.15c-1.52,1.26-3.06,2.51-7.19,2.68V17.86a1,1,0,1,0-1.95,0V30.38L7.19,36.76a1.49,1.49,0,0,0-.6,1.11v1.47h-1v9.75H12.4l0-.94c0-1,3.22-1.75,7.6-2.28a83.39,83.39,0,0,1,10-.55,83.39,83.39,0,0,1,10,.55c4.38.53,7.56,1.32,7.6,2.28l0,.94h6.78V39.34ZM30.49,29.81c0-1.7,1.95-2.71,4.44-3.08a18.86,18.86,0,0,1,5.34,0c2.5.37,4.44,1.38,4.44,3.08v.93H30.49ZM19.73,26.73a18.86,18.86,0,0,1,5.34,0c2.49.37,4.44,1.38,4.44,3.08v.93H15.29v-.92C15.29,28.11,17.23,27.1,19.73,26.73ZM8.54,37.87c0-.9,5.41-1.6,12.34-2,2.85-.16,6-.24,9.12-.24s6.27.08,9.12.24c6.93.41,12.34,1.11,12.34,2v1.47H8.54Z" style="fill:#806809"/></svg>