<svg id="Layer_1" data-name="Layer 1" xmlns="http://www.w3.org/2000/svg" viewBox="0 0 60 60"><title>icon</title><path d="M12.66,25.27c-.06-1.05-.56-8.19-.56-8.19H12L11.7,23.7a.1.1,0,0,1-.11.1.1.1,0,0,1-.1-.1l-.37-6.61,0,0,0,0-.36,6.6s0,.11-.1.11-.1-.11-.1-.11l-.36-6.6h-.07L9.69,23.7a.11.11,0,0,1-.11.1.1.1,0,0,1-.1-.1l-.34-6.62H9.07s-.49,7.14-.55,8.19a.17.17,0,0,0,.13.19,2.65,2.65,0,0,1,1.5,1.63c.51,1.17-.5,15-.77,18a2.69,2.69,0,0,0,1.21,2.46h0A2.71,2.71,0,0,0,11.8,45c-.27-3-1.28-16.78-.78-17.95a2.68,2.68,0,0,1,1.5-1.63A.17.17,0,0,0,12.66,25.27ZM9.61,44.94a3.5,3.5,0,0,1,.12-.77,6.76,6.76,0,0,0,0,1.47,3.5,3.5,0,0,0,.81,1.61A2.7,2.7,0,0,1,9.61,44.94Zm2.78-19.56A2.54,2.54,0,0,0,10.89,27a3.1,3.1,0,0,1,1-1.5c.12-.09.4-.29.43-.52a17.12,17.12,0,0,0,0-1.78c.08,1,.13,1.73.15,2A.17.17,0,0,1,12.39,25.38Z" style="fill:#816809"/><path d="M51.48,45c-.14-1.53-.49-7.79-.56-13.62.44-5.94.06-12.46.13-13.51s-.84-1.29-1.62.12c-1.3,2.33-1.77,9.52-.13,13.2,0,.09,0,.13.06.21.38,1.74,0,10.75-.3,13.6a2.7,2.7,0,0,0,1.21,2.46h0A2.71,2.71,0,0,0,51.48,45Zm-2.2-26.22a1.78,1.78,0,0,1,.21-.53c.45-.9.91-1.22,1.24-1.07-.34,0-.62.25-.87.59A5.58,5.58,0,0,0,49.28,18.82Zm.42,12.84c-.19,0-.24-.2-.24-.28a.39.39,0,0,0,.26.1h1a.09.09,0,1,1,0,.18Zm.6,15.55a3.44,3.44,0,0,0,.82-1.61,6.45,6.45,0,0,0,0-1.46,3.28,3.28,0,0,1,.12.76A2.68,2.68,0,0,1,50.3,47.21Z" style="fill:#816809"/><path d="M45.24,31.74A15.24,15.24,0,1,1,30,16.5,15.24,15.24,0,0,1,45.24,31.74Z" style="fill:#816809"/><path d="M30,44.23A12.49,12.49,0,1,1,42.49,31.74,12.51,12.51,0,0,1,30,44.23Zm0-24.61A12.12,12.12,0,1,0,42.12,31.74,12.13,12.13,0,0,0,30,19.62Z" style="fill:#fff"/></svg>