<svg id="Layer_1" data-name="Layer 1" xmlns="http://www.w3.org/2000/svg" viewBox="0 0 60 60"><title>icon</title><path d="M49.26,15.42v3.35A3.94,3.94,0,0,0,47,18.09H39.45V15.42H37.71v2.67H23.49v-.52a3.7,3.7,0,0,0-3.7-3.69H15.15a3.7,3.7,0,0,0-3.7,3.69v.82a4.38,4.38,0,0,0-.71.38V12H9V50h1.74V46.41h27V50h1.74V46.41h9.81V50H51V15.42ZM37.71,41.94h-27v-.49A2.23,2.23,0,0,1,13,39.23H37.71Zm0-4.45H23.49V37a3.7,3.7,0,0,0-3.7-3.69H15.15A3.7,3.7,0,0,0,11.45,37v.82a3.72,3.72,0,0,0-.71.38V27h27Zm0-14.94h-27v-.5A2.23,2.23,0,0,1,13,19.83H37.71Zm1.74,16.68H47a2.22,2.22,0,0,1,1.47.55h-9Zm9.81,2.71H39.45v-.42h9.81Zm0-3.77A3.94,3.94,0,0,0,47,37.49H39.45V35.72h9.81Zm0-4.19H39.45V29.92h9.81Zm0-5.8H39.45V27h9.81Zm0-5.63H39.45V19.83H47a2.23,2.23,0,0,1,2.23,2.22Z" style="fill:#806809"/></svg>